<svg width="30" height="30" viewBox="0 0 30 30" fill="none" xmlns="http://www.w3.org/2000/svg">
<path d="M27.2814 20.6803L20.8094 14.207C21.3688 12.3973 21.4029 10.4661 20.9078 8.63784C20.4126 6.80959 19.4086 5.15951 18.0124 3.87953C16.6162 2.59956 14.8853 1.74231 13.021 1.40751C11.1567 1.0727 9.2357 1.27411 7.48139 1.98829L7.48272 2.7683L13.1401 8.42563L8.42672 13.139L2.76939 7.48163H1.98806C1.27392 9.23613 1.07266 11.1574 1.4077 13.0218C1.74274 14.8862 2.6003 16.6171 3.8806 18.0132C5.16091 19.4093 6.81132 20.4132 8.63983 20.908C10.4683 21.4028 12.3998 21.3682 14.2094 20.8083L20.6814 27.2816M19.2667 19.2683L23.9801 23.9816" stroke="black" stroke-width="2.5" stroke-linecap="square"/>
</svg>
