<svg width="64" height="64" viewBox="0 0 64 64" fill="none" xmlns="http://www.w3.org/2000/svg">
<path d="M26.2935 5.33334C24.2708 5.33334 22.3309 6.13686 20.9006 7.56713C19.4704 8.99741 18.6668 10.9373 18.6668 12.96V17.44H30.1068C31.1468 17.44 32.0002 18.96 32.0002 20H12.9602C10.9374 20 8.99757 20.8035 7.5673 22.2338C6.13702 23.6641 5.3335 25.604 5.3335 27.6267V37.7093C5.3335 39.7321 6.13702 41.6719 7.5673 43.1022C8.99757 44.5325 10.9374 45.336 12.9602 45.336H16.1068V38.1893C16.1033 37.189 16.2973 36.1979 16.6777 35.2728C17.058 34.3476 17.6173 33.5066 18.3234 32.7981C19.0294 32.0895 19.8684 31.5273 20.7923 31.1437C21.7161 30.7601 22.7065 30.5627 23.7068 30.5627H37.7068C41.9202 30.5627 45.3335 27.1733 45.3335 22.96V12.96C45.3335 10.9373 44.53 8.99741 43.0997 7.56713C41.6694 6.13686 39.7295 5.33334 37.7068 5.33334H26.2935ZM24.3735 9.62667C25.4402 9.62667 26.2935 9.94667 26.2935 11.52C26.2935 13.0933 25.4402 13.896 24.3735 13.896C23.3335 13.896 22.4802 13.096 22.4802 11.5227C22.4802 9.94934 23.3335 9.62667 24.3735 9.62667Z" fill="#0288D1"/>
<path d="M47.8905 18.6667V25.8133C47.8937 26.8134 47.6994 27.8042 47.3189 28.7291C46.9384 29.6539 46.3791 30.4946 45.673 31.2029C44.967 31.9111 44.1281 32.4731 43.2045 32.8565C42.2808 33.24 41.2906 33.4373 40.2905 33.4373H26.2932C25.2929 33.4338 24.3017 33.6278 23.3766 34.0082C22.4514 34.3885 21.6105 34.9478 20.9019 35.6539C20.1934 36.3599 19.6312 37.1989 19.2476 38.1228C18.864 39.0466 18.6665 40.037 18.6665 41.0373V51.0373C18.6665 53.06 19.47 54.9999 20.9003 56.4302C22.3306 57.8605 24.2705 58.664 26.2932 58.664H37.7065C39.7288 58.664 41.6682 57.8608 43.0984 56.4311C44.5286 55.0014 45.3325 53.0622 45.3332 51.04V46.56H33.8905C32.8505 46.56 31.9998 45.04 31.9998 44H51.0398C53.0626 44 55.0024 43.1965 56.4327 41.7662C57.863 40.3359 58.6665 38.396 58.6665 36.3733V26.2933C58.6665 24.2706 57.863 22.3307 56.4327 20.9005C55.0024 19.4702 53.0626 18.6667 51.0398 18.6667H47.8905ZM22.1865 30.7013L22.1758 30.712L22.2772 30.7013H22.1865ZM39.6265 50.104C40.6665 50.104 41.5198 50.904 41.5198 52.4773C41.5198 52.726 41.4709 52.9722 41.3757 53.2019C41.2806 53.4316 41.1411 53.6403 40.9653 53.8161C40.7895 53.9919 40.5808 54.1314 40.3511 54.2265C40.1213 54.3217 39.8751 54.3707 39.6265 54.3707C38.5598 54.3707 37.7065 54.0507 37.7065 52.4773C37.7065 50.904 38.5598 50.104 39.6265 50.104Z" fill="#FDD835"/>
</svg>
