<svg width="64" height="64" viewBox="0 0 64 64" fill="none" xmlns="http://www.w3.org/2000/svg">
<path d="M32.0003 37.7C35.1483 37.7 37.7003 35.148 37.7003 32C37.7003 28.852 35.1483 26.3 32.0003 26.3C28.8523 26.3 26.3003 28.852 26.3003 32C26.3003 35.148 28.8523 37.7 32.0003 37.7Z" fill="#61DAFB"/>
<path d="M53.6502 22.6C52.5502 22.2 51.4002 21.8 50.2002 21.45C50.5002 20.25 50.7502 19.05 50.9502 17.9C52.0002 11.3 50.8502 6.64999 47.6502 4.84999C46.7002 4.29999 45.6502 4.04999 44.4502 4.04999C40.9502 4.04999 36.5002 6.64999 32.0002 11C27.5002 6.64999 23.0502 4.04999 19.5502 4.04999C18.3502 4.04999 17.3002 4.29999 16.3502 4.84999C13.1502 6.69999 12.0002 11.35 13.0502 17.9C13.2502 19.05 13.5002 20.25 13.8002 21.45C12.6002 21.8 11.4502 22.15 10.3502 22.6C4.1002 25 0.700195 28.3 0.700195 32C0.700195 35.7 4.1502 39 10.3502 41.4C11.4502 41.8 12.6002 42.2 13.8002 42.55C13.5002 43.75 13.2502 44.95 13.0502 46.1C12.0002 52.7 13.1502 57.35 16.3502 59.15C17.3002 59.7 18.3502 59.95 19.5502 59.95C23.1002 59.95 27.5502 57.35 32.0002 53C36.5002 57.35 40.9502 59.95 44.4502 59.95C45.6502 59.95 46.7002 59.7 47.6502 59.15C50.8502 57.3 52.0002 52.65 50.9502 46.1C50.7502 44.95 50.5002 43.75 50.2002 42.55C51.4002 42.2 52.5502 41.85 53.6502 41.4C59.9002 39 63.3002 35.7 63.3002 32C63.3002 28.3 59.9002 25 53.6502 22.6ZM46.2502 7.34999C48.3002 8.54999 49.0002 12.25 48.1502 17.5C48.0002 18.55 47.7502 19.65 47.4502 20.8C44.8502 20.2 42.1002 19.8 39.2002 19.55C37.5002 17.15 35.7502 15 34.0002 13.05C37.7002 9.39999 41.4502 6.89999 44.5002 6.89999C45.1502 6.89999 45.7502 7.04999 46.2502 7.34999ZM40.6502 37C39.7502 38.6 38.7002 40.2 37.6002 41.8C35.7502 41.95 33.9002 42 32.0002 42C30.0502 42 28.2002 41.95 26.4002 41.8C25.3002 40.2 24.3002 38.6 23.4002 37C22.4502 35.35 21.5502 33.65 20.7502 32C21.5502 30.35 22.4502 28.65 23.4002 27C24.3002 25.4 25.3502 23.8 26.4502 22.2C28.3002 22.05 30.1502 22 32.0502 22C34.0002 22 35.8502 22.05 37.6502 22.2C38.7502 23.8 39.7502 25.4 40.6502 27C41.6002 28.65 42.5002 30.35 43.3002 32C42.4502 33.65 41.6002 35.3 40.6502 37ZM44.8002 35.35C45.5502 37.1 46.1502 38.8 46.7002 40.5C45.0002 40.9 43.2002 41.2 41.3002 41.45C41.9002 40.5 42.5502 39.5 43.1002 38.45C43.7002 37.4 44.2502 36.35 44.8002 35.35ZM32.0002 48.9C30.8002 47.6 29.6502 46.2 28.5502 44.75C29.7002 44.8 30.8502 44.85 32.0002 44.85C33.1502 44.85 34.3002 44.8 35.4502 44.75C34.3502 46.2 33.2002 47.6 32.0002 48.9ZM22.7002 41.4C20.8002 41.15 19.0002 40.85 17.3002 40.45C17.8502 38.8 18.4502 37.05 19.2002 35.3C19.7502 36.3 20.3002 37.35 20.9002 38.35C21.5002 39.45 22.1002 40.4 22.7002 41.4ZM19.2002 28.65C18.4502 26.9 17.8502 25.2 17.3002 23.5C19.0002 23.1 20.8002 22.8 22.7002 22.55C22.1002 23.5 21.4502 24.5 20.9002 25.55C20.3002 26.6 19.7502 27.65 19.2002 28.65ZM32.0002 15.1C33.2002 16.4 34.3502 17.8 35.4502 19.25C34.3002 19.2 33.1502 19.15 32.0002 19.15C30.8502 19.15 29.7002 19.2 28.5502 19.25C29.6502 17.8 30.8002 16.4 32.0002 15.1ZM43.1002 25.6L41.3002 22.6C43.2002 22.85 45.0002 23.15 46.7002 23.55C46.1502 25.2 45.5502 26.95 44.8002 28.7C44.2502 27.65 43.7002 26.6 43.1002 25.6ZM15.8502 17.5C15.0002 12.25 15.7002 8.54999 17.7502 7.34999C18.2502 7.04999 18.8502 6.89999 19.5002 6.89999C22.5002 6.89999 26.2502 9.34999 30.0002 13.05C28.2502 14.95 26.5002 17.15 24.8002 19.55C21.9002 19.8 19.1502 20.25 16.5502 20.8C16.2502 19.65 16.0502 18.55 15.8502 17.5ZM3.5002 32C3.5002 29.65 6.3502 27.15 11.3502 25.3C12.3502 24.9 13.4502 24.55 14.5502 24.25C15.3502 26.75 16.3502 29.4 17.5502 32.05C16.3502 34.7 15.3002 37.3 14.5502 39.8C7.6502 37.8 3.5002 34.8 3.5002 32ZM17.7502 56.65C15.7002 55.45 15.0002 51.75 15.8502 46.5C16.0002 45.45 16.2502 44.35 16.5502 43.2C19.1502 43.8 21.9002 44.2 24.8002 44.45C26.5002 46.85 28.2502 49 30.0002 50.95C26.3002 54.6 22.5502 57.1 19.5002 57.1C18.8502 57.1 18.2502 56.95 17.7502 56.65ZM48.1502 46.5C49.0002 51.75 48.3002 55.45 46.2502 56.65C45.7502 56.95 45.1502 57.1 44.5002 57.1C41.5002 57.1 37.7502 54.65 34.0002 50.95C35.7502 49.05 37.5002 46.85 39.2002 44.45C42.1002 44.2 44.8502 43.75 47.4502 43.2C47.7502 44.35 47.9502 45.45 48.1502 46.5ZM52.6502 38.7C51.6502 39.1 50.5502 39.45 49.4502 39.75C48.6502 37.25 47.6502 34.6 46.4502 31.95C47.6502 29.3 48.7002 26.7 49.4502 24.2C56.3502 26.2 60.5002 29.2 60.5002 32C60.5002 34.35 57.6002 36.85 52.6502 38.7Z" fill="#61DAFB"/>
</svg>
