<svg width="64" height="64" viewBox="0 0 64 64" fill="none" xmlns="http://www.w3.org/2000/svg">
<g clip-path="url(#clip0_27_436)">
<path d="M49 0H15C6.71573 0 0 6.71573 0 15V49C0 57.2843 6.71573 64 15 64H49C57.2843 64 64 57.2843 64 49V15C64 6.71573 57.2843 0 49 0Z" fill="#242938"/>
<path d="M56.772 14.4005L33.314 56.3473C32.8295 57.2135 31.5853 57.2185 31.0938 56.3568L7.17055 14.4043C6.63505 13.4653 7.43805 12.3278 8.50255 12.518L31.9855 16.7155C32.1354 16.7422 32.2888 16.7419 32.4385 16.7145L55.4305 12.5238C56.4913 12.3305 57.298 13.4593 56.772 14.4005Z" fill="url(#paint0_linear_27_436)"/>
<path d="M43.1718 7.0125L25.8123 10.4137C25.6736 10.4409 25.5479 10.5135 25.4549 10.6199C25.3619 10.7263 25.3069 10.8607 25.2986 11.0017L24.2306 29.037C24.2248 29.1359 24.2421 29.2347 24.2811 29.3258C24.3201 29.4168 24.3799 29.4975 24.4555 29.5614C24.5312 29.6254 24.6207 29.6708 24.7169 29.6941C24.8132 29.7174 24.9136 29.718 25.0101 29.6957L29.8433 28.5805C30.2956 28.4762 30.7041 28.8745 30.6113 29.3292L29.1753 36.3607C29.0786 36.834 29.5231 37.2385 29.9851 37.0982L32.9703 36.1912C33.4331 36.0507 33.8778 36.4565 33.7798 36.9302L31.4978 47.975C31.3551 48.666 32.2741 49.0427 32.6573 48.4502L32.9133 48.0547L47.0588 19.8247C47.2958 19.3522 46.8873 18.8132 46.3681 18.9132L41.3933 19.8735C40.9258 19.9635 40.5281 19.5282 40.6598 19.071L43.9071 7.8145C44.0391 7.3565 43.6398 6.921 43.1718 7.0125Z" fill="url(#paint1_linear_27_436)"/>
</g>
<defs>
<linearGradient id="paint0_linear_27_436" x1="6.58655" y1="11.0187" x2="35.7818" y2="50.6683" gradientUnits="userSpaceOnUse">
<stop stop-color="#41D1FF"/>
<stop offset="1" stop-color="#BD34FE"/>
</linearGradient>
<linearGradient id="paint1_linear_27_436" x1="30.6378" y1="7.93575" x2="35.9191" y2="44.165" gradientUnits="userSpaceOnUse">
<stop stop-color="#FFEA83"/>
<stop offset="0.083" stop-color="#FFDD35"/>
<stop offset="1" stop-color="#FFA800"/>
</linearGradient>
<clipPath id="clip0_27_436">
<rect width="64" height="64" fill="white"/>
</clipPath>
</defs>
</svg>
