<svg width="64" height="64" viewBox="0 0 64 64" fill="none" xmlns="http://www.w3.org/2000/svg">
<path d="M51.6691 42.6347L31.1145 54.5013L10.5571 42.6347V18.9013L31.1145 7.032L51.6691 18.8987V42.6347Z" fill="#FAFAFA" fill-opacity="0.785"/>
<path d="M32.7627 5.28C32.2027 5.28 31.6694 5.43733 31.2427 5.75733L10.176 17.5973C9.3227 18.0507 8.7627 18.9307 8.7627 19.944V43.944C8.7627 44.9573 9.3227 45.84 10.176 46.2933L31.2427 58.1333C31.6694 58.4533 32.2027 58.6133 32.7627 58.6133C33.3227 58.6133 33.856 58.4533 34.2827 58.1333L55.3494 46.2933C56.2027 45.84 56.7627 44.96 56.7627 43.9467V19.9467C56.7627 18.9333 56.2027 18.048 55.3494 17.5947L34.2827 5.75466C33.8405 5.43623 33.3075 5.26884 32.7627 5.27733V5.28ZM32.7627 11.0133L51.4294 21.52V27.128H51.3867V40.9333H51.4294V42.3733L32.7627 52.8773L14.096 42.3707V21.52L32.7627 11.0133ZM32.7627 16.56L19.696 24.1067L32.7627 31.6533L45.8294 24.1067L32.7627 16.56ZM19.4294 30.1067V39.6533L30.096 45.8107V36.264L19.4294 30.104V30.1067ZM46.096 30.1067L35.4294 36.2613V45.808L46.096 39.6533V30.1067Z" fill="#90CAF9"/>
<path d="M32.7625 16.56L19.6959 24.1067L32.7625 31.6533L45.8292 24.1067L32.7625 16.56ZM19.4292 30.1067V39.6533L30.0959 45.8107V36.264L19.4292 30.104V30.1067ZM46.0959 30.1067L35.4292 36.2613V45.808L46.0959 39.6533V30.1067Z" fill="#0277BD"/>
</svg>
